<svg width="135" height="46" viewBox="0 0 135 46" fill="none" xmlns="http://www.w3.org/2000/svg">
<g clip-path="url(#clip0_6_37)">
<path d="M126.68 1.13194H7.94444C4.08995 1.13194 0.965271 4.25662 0.965271 8.11111V37.8889C0.965271 41.7434 4.08995 44.8681 7.94444 44.8681H126.68C130.534 44.8681 133.659 41.7434 133.659 37.8889V8.11111C133.659 4.25662 130.534 1.13194 126.68 1.13194Z" fill="#050038"/>
<path d="M28.1594 23.3357C28.1714 22.4037 28.419 21.4898 28.8791 20.6792C29.3391 19.8685 29.9969 19.1874 30.7909 18.6993C30.2864 17.9788 29.621 17.386 28.8473 16.9677C28.0737 16.5495 27.2131 16.3174 26.3341 16.2899C24.4589 16.093 22.6411 17.4119 21.6855 17.4119C20.7115 17.4119 19.2403 16.3094 17.6561 16.342C16.6313 16.3751 15.6326 16.6731 14.7573 17.2069C13.882 17.7408 13.1598 18.4922 12.6613 19.3881C10.5017 23.1271 12.1126 28.6223 14.1813 31.6447C15.2164 33.1246 16.426 34.7779 18.0088 34.7192C19.5577 34.6549 20.1362 33.7315 22.0058 33.7315C23.8581 33.7315 24.4008 34.7192 26.0157 34.6819C27.6777 34.6549 28.7249 33.1954 29.7236 31.7013C30.4673 30.6468 31.0395 29.4814 31.4192 28.2481C30.4536 27.8397 29.6296 27.1561 29.0499 26.2825C28.4703 25.409 28.1605 24.3841 28.1594 23.3357Z" fill="white"/>
<path d="M25.1083 14.3022C26.0145 13.2143 26.4609 11.816 26.3528 10.4044C24.9683 10.5497 23.6895 11.2114 22.771 12.2576C22.322 12.7686 21.9781 13.3632 21.7589 14.0072C21.5398 14.6512 21.4497 15.3322 21.4939 16.0111C22.1863 16.0182 22.8714 15.8681 23.4975 15.5721C24.1236 15.2761 24.6744 14.8419 25.1083 14.3022Z" fill="white"/>
<path d="M47.7391 30.9727H42.4535L41.1842 34.7207H38.9454L43.9518 20.854H46.2778L51.2843 34.7207H49.0073L47.7391 30.9727ZM43.0009 29.2432H47.1906L45.1253 23.1604H45.0675L43.0009 29.2432Z" fill="white"/>
<path d="M62.0963 29.6662C62.0963 32.808 60.4147 34.8264 57.8771 34.8264C57.2343 34.86 56.595 34.712 56.0325 34.3992C55.4699 34.0864 55.0068 33.6215 54.6962 33.0576H54.6482V38.0651H52.573V24.6107H54.5817V26.2922H54.6198C54.9448 25.7312 55.4156 25.2687 55.9825 24.9539C56.5494 24.6392 57.1909 24.484 57.839 24.5049C60.4048 24.5049 62.0963 26.5332 62.0963 29.6662ZM59.9633 29.6662C59.9633 27.6194 58.9055 26.2737 57.2915 26.2737C55.706 26.2737 54.6395 27.6477 54.6395 29.6662C54.6395 31.7033 55.706 33.0675 57.2915 33.0675C58.9055 33.0675 59.9633 31.7316 59.9633 29.6662Z" fill="white"/>
<path d="M73.2248 29.6662C73.2248 32.808 71.5432 34.8264 69.0056 34.8264C68.3628 34.86 67.7235 34.712 67.161 34.3991C66.5984 34.0864 66.1353 33.6215 65.8246 33.0576H65.7766V38.0651H63.7015V24.6107H65.7101V26.2922H65.7483C66.0732 25.7312 66.5441 25.2686 67.1109 24.9539C67.6778 24.6392 68.3194 24.484 68.9674 24.5049C71.5334 24.5049 73.2248 26.5332 73.2248 29.6662ZM71.0918 29.6662C71.0918 27.6194 70.0339 26.2737 68.42 26.2737C66.8345 26.2737 65.768 27.6477 65.768 29.6662C65.768 31.7033 66.8345 33.0675 68.42 33.0675C70.034 33.0675 71.0918 31.7316 71.0918 29.6662Z" fill="white"/>
<path d="M80.5783 30.8571C80.7321 32.2322 82.0679 33.1351 83.8934 33.1351C85.6426 33.1351 86.901 32.2322 86.901 30.9924C86.901 29.916 86.142 29.2716 84.3449 28.8298L82.5477 28.3969C80.0015 27.7819 78.8194 26.5911 78.8194 24.6587C78.8194 22.2662 80.9044 20.6228 83.865 20.6228C86.7952 20.6228 88.8039 22.2662 88.8715 24.6587H86.7767C86.6513 23.2749 85.5074 22.4396 83.8356 22.4396C82.1639 22.4396 81.02 23.2847 81.02 24.5149C81.02 25.4952 81.7506 26.072 83.5379 26.5136L85.0656 26.8888C87.9107 27.5616 89.0929 28.7045 89.0929 30.7327C89.0929 33.327 87.0264 34.9519 83.7396 34.9519C80.6645 34.9519 78.5881 33.3652 78.454 30.8571L80.5783 30.8571Z" fill="white"/>
<path d="M93.5723 22.2182V24.6108H95.4948V26.2542H93.5723V31.8276C93.5723 32.6935 93.9566 33.097 94.8016 33.097C95.0305 33.093 95.2585 33.077 95.4846 33.049V34.6826C95.1049 34.7536 94.7188 34.7857 94.3316 34.7785C92.2852 34.7785 91.4868 34.0097 91.4868 32.049V26.2542H90.0169V24.6108H91.4868V22.2182H93.5723Z" fill="white"/>
<path d="M96.6068 29.6663C96.6068 26.4854 98.481 24.4865 101.402 24.4865C104.333 24.4865 106.198 26.4853 106.198 29.6663C106.198 32.856 104.343 34.8462 101.402 34.8462C98.4624 34.8462 96.6068 32.856 96.6068 29.6663ZM104.084 29.6663C104.084 27.4842 103.084 26.1964 101.402 26.1964C99.7205 26.1964 98.722 27.494 98.722 29.6663C98.722 31.8571 99.7205 33.1351 101.402 33.1351C103.084 33.1351 104.084 31.8571 104.084 29.6663Z" fill="white"/>
<path d="M107.908 24.6109H109.888V26.3316H109.935C110.069 25.7942 110.385 25.3192 110.828 24.9866C111.27 24.654 111.814 24.484 112.368 24.5051C112.607 24.5042 112.845 24.5302 113.079 24.5825V26.5236C112.776 26.4313 112.462 26.3889 112.146 26.3981C111.845 26.3859 111.544 26.4391 111.265 26.554C110.986 26.6688 110.735 26.8427 110.53 27.0637C110.324 27.2847 110.169 27.5475 110.075 27.8341C109.981 28.1208 109.949 28.4244 109.984 28.7241V34.7208H107.908V24.6109Z" fill="white"/>
<path d="M122.648 31.7513C122.368 33.5866 120.582 34.8462 118.294 34.8462C115.354 34.8462 113.528 32.8756 113.528 29.7143C113.528 26.5432 115.363 24.4865 118.207 24.4865C121.004 24.4865 122.763 26.4079 122.763 29.4733V30.1843H115.623V30.3097C115.59 30.6817 115.637 31.0566 115.76 31.4092C115.882 31.762 116.079 32.0844 116.336 32.3552C116.593 32.6261 116.906 32.8391 117.251 32.9802C117.597 33.1212 117.97 33.1871 118.343 33.1733C118.833 33.2193 119.325 33.1057 119.746 32.8495C120.167 32.5933 120.493 32.2081 120.678 31.7513H122.648ZM115.633 28.7339H120.687C120.705 28.3994 120.655 28.0646 120.538 27.7506C120.422 27.4366 120.241 27.1501 120.008 26.9092C119.775 26.6682 119.495 26.478 119.185 26.3505C118.875 26.223 118.542 26.1608 118.207 26.168C117.869 26.166 117.534 26.2309 117.221 26.359C116.909 26.4872 116.625 26.676 116.385 26.9146C116.146 27.1531 115.956 27.4367 115.827 27.749C115.698 28.0612 115.632 28.396 115.633 28.734V28.7339Z" fill="white"/>
<path d="M42.7407 10.4162C43.1757 10.385 43.6123 10.4507 44.0189 10.6086C44.4255 10.7665 44.7919 11.0128 45.0919 11.3295C45.3918 11.6462 45.6177 12.0255 45.7533 12.4401C45.8888 12.8547 45.9307 13.2942 45.8758 13.7269C45.8758 15.8556 44.7254 17.0792 42.7407 17.0792H40.3339V10.4162H42.7407ZM41.3688 16.1369H42.625C42.9359 16.1555 43.2471 16.1045 43.5358 15.9877C43.8244 15.8708 44.0835 15.6911 44.294 15.4616C44.5045 15.232 44.6611 14.9584 44.7525 14.6607C44.844 14.363 44.8678 14.0486 44.8224 13.7405C44.8645 13.4336 44.8382 13.1212 44.7454 12.8257C44.6526 12.5301 44.4956 12.2588 44.2855 12.0311C44.0756 11.8034 43.8177 11.6249 43.5307 11.5085C43.2436 11.3921 42.9344 11.3406 42.625 11.3578H41.3688V16.1369Z" fill="white"/>
<path d="M47.0444 14.5629C47.0128 14.2325 47.0507 13.8991 47.1554 13.5841C47.2602 13.2691 47.4297 12.9795 47.6529 12.7339C47.8761 12.4883 48.1483 12.292 48.4519 12.1576C48.7554 12.0234 49.0837 11.9539 49.4157 11.9539C49.7477 11.9539 50.076 12.0234 50.3795 12.1576C50.6831 12.292 50.9552 12.4883 51.1785 12.7339C51.4017 12.9795 51.5712 13.2691 51.676 13.5841C51.7808 13.8991 51.8186 14.2325 51.787 14.5629C51.8192 14.8937 51.7819 15.2275 51.6773 15.5431C51.5728 15.8585 51.4034 16.1487 51.1801 16.3948C50.9568 16.641 50.6845 16.8376 50.3806 16.9722C50.0767 17.1068 49.7481 17.1763 49.4157 17.1763C49.0834 17.1763 48.7547 17.1068 48.4509 16.9722C48.1469 16.8376 47.8746 16.641 47.6512 16.3948C47.428 16.1487 47.2586 15.8585 47.154 15.5431C47.0495 15.2275 47.0122 14.8937 47.0444 14.5629ZM50.7663 14.5629C50.7663 13.473 50.2766 12.8355 49.4173 12.8355C48.5548 12.8355 48.0695 13.473 48.0695 14.5629C48.0695 15.6616 48.5548 16.294 49.4173 16.294C50.2767 16.294 50.7663 15.6573 50.7663 14.5629Z" fill="white"/>
<path d="M58.0915 17.0792H57.0621L56.0229 13.3759H55.9444L54.9095 17.0792H53.8899L52.5039 12.051H53.5104L54.4112 15.8879H54.4853L55.5191 12.051H56.471L57.5049 15.8879H57.5833L58.4797 12.051H59.4721L58.0915 17.0792Z" fill="white"/>
<path d="M60.6371 12.051H61.5925V12.8498H61.6666C61.7923 12.5629 62.0045 12.3223 62.2735 12.1618C62.5425 12.0012 62.8548 11.9285 63.167 11.9539C63.4118 11.9355 63.6575 11.9725 63.8859 12.0619C64.1144 12.1513 64.3197 12.291 64.4869 12.4706C64.6541 12.6502 64.7787 12.8651 64.8514 13.0994C64.9243 13.3338 64.9434 13.5814 64.9075 13.8241V17.0792H63.9151V14.0733C63.9151 13.2653 63.564 12.8634 62.8301 12.8634C62.664 12.8556 62.4982 12.8839 62.3441 12.9463C62.1899 13.0086 62.051 13.1035 61.9369 13.2246C61.823 13.3456 61.7364 13.4899 61.6834 13.6475C61.6302 13.8051 61.6119 13.9723 61.6295 14.1377V17.0792H60.6371V12.051Z" fill="white"/>
<path d="M66.4895 10.0881H67.4818V17.0792H66.4895V10.0881Z" fill="white"/>
<path d="M68.8616 14.563C68.8301 14.2326 68.8678 13.8992 68.9726 13.5842C69.0775 13.2692 69.2469 12.9796 69.4703 12.7339C69.6935 12.4883 69.9657 12.292 70.2693 12.1576C70.5729 12.0234 70.9012 11.9539 71.2331 11.9539C71.5651 11.9539 71.8934 12.0234 72.197 12.1576C72.5006 12.292 72.7727 12.4883 72.9961 12.7339C73.2193 12.9796 73.3888 13.2692 73.4936 13.5842C73.5984 13.8992 73.6363 14.2326 73.6046 14.563C73.6368 14.8938 73.5994 15.2276 73.4949 15.5432C73.3904 15.8586 73.221 16.1488 72.9976 16.3949C72.7743 16.641 72.5019 16.8377 72.198 16.9722C71.8942 17.1069 71.5655 17.1764 71.2331 17.1764C70.9008 17.1764 70.5721 17.1069 70.2682 16.9722C69.9643 16.8377 69.6919 16.641 69.4686 16.3949C69.2453 16.1488 69.0759 15.8586 68.9713 15.5432C68.8668 15.2276 68.8294 14.8938 68.8616 14.563ZM72.5835 14.563C72.5835 13.4731 72.0938 12.8356 71.2345 12.8356C70.3719 12.8356 69.8867 13.4731 69.8867 14.563C69.8867 15.6617 70.372 16.2941 71.2345 16.2941C72.0938 16.2941 72.5835 15.6574 72.5835 14.563Z" fill="white"/>
<path d="M74.6482 15.6573C74.6482 14.7521 75.3222 14.2304 76.5184 14.1562L77.8804 14.0777V13.6436C77.8804 13.1126 77.5293 12.8127 76.851 12.8127C76.297 12.8127 75.9132 13.0161 75.8031 13.3716H74.8423C74.9437 12.5079 75.7562 11.9539 76.8968 11.9539C78.1574 11.9539 78.8684 12.5815 78.8684 13.6436V17.0792H77.9131V16.3727H77.8346C77.6753 16.6261 77.4515 16.8327 77.1862 16.9715C76.9208 17.1101 76.6234 17.1759 76.3243 17.1622C76.1132 17.1841 75.8999 17.1616 75.698 17.096C75.4962 17.0305 75.3102 16.9234 75.1523 16.7816C74.9944 16.6397 74.868 16.4665 74.7811 16.2728C74.6943 16.0792 74.649 15.8695 74.6482 15.6573ZM77.8804 15.2276V14.8072L76.6525 14.8857C75.9601 14.9321 75.646 15.1676 75.646 15.6109C75.646 16.0635 76.0386 16.3268 76.5784 16.3268C76.7366 16.3428 76.8964 16.3269 77.0483 16.2799C77.2001 16.2329 77.341 16.1558 77.4624 16.0532C77.5839 15.9507 77.6835 15.8248 77.7553 15.6829C77.8271 15.541 77.8696 15.3862 77.8804 15.2276Z" fill="white"/>
<path d="M80.1733 14.5629C80.1733 12.9741 80.9902 11.9675 82.2606 11.9675C82.5748 11.9531 82.8867 12.0284 83.1598 12.1845C83.4328 12.3408 83.6558 12.5714 83.8025 12.8497H83.8767V10.0881H84.869V17.0792H83.9182V16.2848H83.8396C83.6815 16.5611 83.4508 16.789 83.1724 16.9437C82.8941 17.0982 82.5787 17.1738 82.2606 17.1621C80.9814 17.1622 80.1733 16.1556 80.1733 14.5629ZM81.1984 14.5629C81.1984 15.6294 81.7012 16.2711 82.542 16.2711C83.3784 16.2711 83.8953 15.6201 83.8953 14.5673C83.8953 13.5193 83.373 12.8591 82.542 12.8591C81.7066 12.8591 81.1984 13.5052 81.1984 14.5629Z" fill="white"/>
<path d="M88.974 14.5629C88.9423 14.2325 88.9802 13.8991 89.085 13.5841C89.1897 13.2691 89.3592 12.9795 89.5824 12.7339C89.8057 12.4883 90.0779 12.292 90.3814 12.1576C90.685 12.0234 91.0133 11.9539 91.3452 11.9539C91.6772 11.9539 92.0054 12.0234 92.3091 12.1576C92.6126 12.292 92.8847 12.4883 93.108 12.7339C93.3313 12.9795 93.5007 13.2691 93.6058 13.5841C93.71 13.8991 93.7482 14.2325 93.7165 14.5629C93.7491 14.8937 93.7109 15.2275 93.6067 15.5431C93.5023 15.8585 93.333 16.1487 93.1096 16.3948C92.8863 16.641 92.614 16.8376 92.3101 16.9722C92.0063 17.1068 91.6776 17.1763 91.3452 17.1763C91.0129 17.1763 90.6842 17.1068 90.3803 16.9722C90.0765 16.8376 89.8041 16.641 89.5808 16.3948C89.3574 16.1487 89.1881 15.8585 89.0836 15.5431C88.9791 15.2275 88.9418 14.8937 88.974 14.5629ZM92.6958 14.5629C92.6958 13.473 92.2061 12.8355 91.3469 12.8355C90.4843 12.8355 89.9991 13.473 89.9991 14.5629C89.9991 15.6616 90.4843 16.294 91.3469 16.294C92.2061 16.294 92.6958 15.6573 92.6958 14.5629Z" fill="white"/>
<path d="M95.0491 12.051H96.0048V12.8498H96.0792C96.2048 12.5629 96.417 12.3223 96.6859 12.1618C96.9549 12.0012 97.2675 11.9285 97.5793 11.9539C97.824 11.9355 98.0697 11.9725 98.2986 12.0619C98.5266 12.1513 98.7322 12.291 98.8997 12.4706C99.0663 12.6502 99.191 12.8651 99.2636 13.0994C99.3371 13.3338 99.3557 13.5814 99.3203 13.8241V17.0792H98.3274V14.0733C98.3274 13.2653 97.9766 12.8634 97.2424 12.8634C97.0768 12.8556 96.9102 12.8839 96.7567 12.9463C96.6022 13.0086 96.4635 13.1035 96.3491 13.2246C96.2356 13.3456 96.149 13.4899 96.096 13.6475C96.0429 13.8051 96.0243 13.9723 96.042 14.1377V17.0792H95.0491V12.051Z" fill="white"/>
<path d="M104.927 10.799V12.0739H106.017V12.9097H104.927V15.4953C104.927 16.0219 105.145 16.2526 105.638 16.2526C105.764 16.2522 105.891 16.2445 106.017 16.2297V17.0563C105.839 17.0882 105.657 17.1051 105.477 17.107C104.373 17.107 103.934 16.7187 103.934 15.7494V12.9097H103.136V12.0738H103.934V10.799H104.927Z" fill="white"/>
<path d="M107.372 10.0881H108.356V12.859H108.434C108.566 12.5695 108.784 12.3275 109.059 12.1664C109.333 12.0052 109.65 11.9325 109.968 11.9583C110.211 11.945 110.454 11.9857 110.68 12.0773C110.906 12.1689 111.109 12.3092 111.274 12.4883C111.44 12.6673 111.564 12.8807 111.637 13.1131C111.711 13.3455 111.731 13.5912 111.7 13.8328V17.0792H110.706V14.0776C110.706 13.2745 110.332 12.8677 109.631 12.8677C109.46 12.8538 109.288 12.8772 109.127 12.9364C108.967 12.9957 108.821 13.0893 108.701 13.2107C108.58 13.3322 108.488 13.4785 108.43 13.6394C108.372 13.8003 108.35 13.972 108.364 14.1425V17.0792H107.372V10.0881Z" fill="white"/>
<path d="M117.484 15.7217C117.349 16.1813 117.057 16.5788 116.658 16.8447C116.26 17.1106 115.781 17.228 115.305 17.1764C114.974 17.1851 114.645 17.1217 114.34 16.9905C114.036 16.8593 113.763 16.6634 113.543 16.4164C113.321 16.1694 113.158 15.8774 113.061 15.5605C112.964 15.2435 112.937 14.9093 112.983 14.5811C112.938 14.2518 112.965 13.9168 113.062 13.599C113.159 13.2811 113.322 12.9877 113.542 12.7386C113.762 12.4895 114.032 12.2905 114.336 12.1551C114.639 12.0198 114.969 11.9512 115.301 11.954C116.699 11.954 117.543 12.9099 117.543 14.4889V14.8351H113.993V14.8908C113.978 15.0753 114.001 15.261 114.061 15.4361C114.122 15.6111 114.219 15.7715 114.344 15.9072C114.471 16.0428 114.623 16.1505 114.794 16.2236C114.964 16.2966 115.147 16.3333 115.332 16.3313C115.57 16.3597 115.81 16.317 116.023 16.2084C116.236 16.0999 116.412 15.9305 116.528 15.7217H117.484ZM113.993 14.1012H116.533C116.546 13.9325 116.523 13.7629 116.466 13.6036C116.409 13.4442 116.319 13.2985 116.202 13.1758C116.086 13.0532 115.945 12.9562 115.788 12.8913C115.633 12.8263 115.465 12.7948 115.295 12.7986C115.124 12.7965 114.954 12.8287 114.795 12.8934C114.635 12.9581 114.491 13.054 114.369 13.1754C114.248 13.2968 114.152 13.4412 114.087 13.6003C114.023 13.7593 113.991 13.9296 113.993 14.1012Z" fill="white"/>
<path d="M126.68 1.13194H7.94444C4.08995 1.13194 0.965271 4.25662 0.965271 8.11111V37.8889C0.965271 41.7434 4.08995 44.8681 7.94444 44.8681H126.68C130.534 44.8681 133.659 41.7434 133.659 37.8889V8.11111C133.659 4.25662 130.534 1.13194 126.68 1.13194Z" stroke="#A6A6A6" stroke-width="0.930556"/>
</g>
<defs>
<clipPath id="clip0_6_37">
<rect width="134" height="45" fill="white" transform="translate(0.5 0.5)"/>
</clipPath>
</defs>
</svg>
