<svg width="25" height="24" viewBox="0 0 25 24" fill="none" xmlns="http://www.w3.org/2000/svg">
<g clip-path="url(#clip0_6_11)">
<path fill-rule="evenodd" clip-rule="evenodd" d="M13.3962 21.9605C18.4992 21.5073 22.5 17.2209 22.5 12.0001C22.5 6.47727 18.0228 2.00012 12.5 2.00012C6.97715 2.00012 2.5 6.47727 2.5 12.0001C2.5 16.848 5.94966 20.8901 10.5282 21.8058V14.5881H8.125V11.699H10.5282V9.56754C10.5282 7.09439 11.9801 5.75012 14.1043 5.75012C15.1199 5.75012 15.9925 5.82439 16.25 5.86153V8.4535H14.7766C13.618 8.4535 13.3962 9.01795 13.3962 9.85718V11.699H16.1499L15.7923 14.5881H13.3962V21.9605Z" fill="white"/>
</g>
<defs>
<clipPath id="clip0_6_11">
<rect width="24" height="24" fill="white" transform="translate(0.5)"/>
</clipPath>
</defs>
</svg>
