<svg width="25" height="25" viewBox="0 0 25 25" fill="none" xmlns="http://www.w3.org/2000/svg">
<path fill-rule="evenodd" clip-rule="evenodd" d="M24.5 12.5C24.5 19.1275 19.1275 24.5 12.5 24.5C5.87259 24.5 0.5 19.1275 0.5 12.5C0.5 5.87259 5.87259 0.5 12.5 0.5C19.1275 0.5 24.5 5.87259 24.5 12.5ZM6.62377 14.5C6.54208 13.8448 6.5 13.1773 6.5 12.5C6.5 11.8227 6.54209 11.1552 6.6238 10.5H2.70004C2.56887 11.1462 2.5 11.8151 2.5 12.5C2.5 13.1849 2.56887 13.8537 2.70004 14.5H6.62377ZM7.00405 16.5H3.33209C4.5096 19.1951 6.84063 21.2707 9.70108 22.1031C8.46156 20.4536 7.53345 18.5568 7.00405 16.5ZM9.07976 16.5H15.9203C15.2623 18.7109 14.0728 20.6929 12.5 22.298C10.9272 20.6929 9.73776 18.7109 9.07976 16.5ZM16.3583 14.5H8.64179C8.54836 13.8468 8.5 13.179 8.5 12.5C8.5 11.821 8.54836 11.1532 8.64179 10.5H16.3583C16.4516 11.1532 16.5 11.821 16.5 12.5C16.5 13.179 16.4516 13.8468 16.3583 14.5ZM18.3763 14.5C18.4579 13.8448 18.5 13.1773 18.5 12.5C18.5 11.8227 18.4579 11.1552 18.3763 10.5H22.3C22.4312 11.1462 22.5 11.8151 22.5 12.5C22.5 13.1849 22.4312 13.8537 22.3 14.5H18.3763ZM17.996 16.5H21.6679C20.4904 19.1951 18.1593 21.2707 15.2989 22.1031C16.5384 20.4536 17.4665 18.5568 17.996 16.5ZM12.5 2.70204C10.9272 4.30704 9.73776 6.28908 9.07976 8.5H15.9203C15.2623 6.28908 14.0728 4.30704 12.5 2.70204ZM15.2989 2.89697C16.5384 4.54639 17.4665 6.44316 17.9959 8.5H21.6679C20.4904 5.80497 18.1593 3.72927 15.2989 2.89697ZM3.33209 8.5H7.00408C7.53348 6.44316 8.4616 4.54639 9.70111 2.89697C6.84064 3.72927 4.5096 5.80497 3.33209 8.5Z" fill="white"/>
</svg>
