<svg width="25" height="24" viewBox="0 0 25 24" fill="none" xmlns="http://www.w3.org/2000/svg">
<g clip-path="url(#clip0_6_17)">
<path d="M9.16721 12C9.16721 10.1591 10.6591 8.6664 12.5 8.6664C14.3409 8.6664 15.8336 10.1591 15.8336 12C15.8336 13.8409 14.3409 15.3336 12.5 15.3336C10.6591 15.3336 9.16721 13.8409 9.16721 12ZM7.36511 12C7.36511 14.836 9.66398 17.1349 12.5 17.1349C15.336 17.1349 17.6349 14.836 17.6349 12C17.6349 9.16397 15.336 6.8651 12.5 6.8651C9.66398 6.8651 7.36511 9.16397 7.36511 12ZM16.6381 6.66155C16.6381 7.32391 17.1753 7.86187 17.8385 7.86187C18.5008 7.86187 19.0388 7.32391 19.0388 6.66155C19.0388 5.99919 18.5016 5.46204 17.8385 5.46204C17.1753 5.46204 16.6381 5.99919 16.6381 6.66155ZM8.45961 20.1397C7.48465 20.0953 6.95477 19.933 6.60259 19.7956C6.1357 19.6139 5.80291 19.3974 5.45234 19.0477C5.10259 18.6979 4.8853 18.3651 4.70436 17.8982C4.56704 17.546 4.40469 17.0162 4.36026 16.0412C4.31179 14.9871 4.3021 14.6704 4.3021 12C4.3021 9.32956 4.3126 9.01373 4.36026 7.9588C4.40469 6.98384 4.56785 6.45477 4.70436 6.10178C4.88611 5.63489 5.10259 5.3021 5.45234 4.95153C5.8021 4.60178 6.1349 4.38449 6.60259 4.20355C6.95477 4.06624 7.48465 3.90388 8.45961 3.85945C9.51373 3.81099 9.83037 3.80129 12.5 3.80129C15.1704 3.80129 15.4863 3.81179 16.5412 3.85945C17.5162 3.90388 18.0452 4.06704 18.3982 4.20355C18.8651 4.38449 19.1979 4.60178 19.5485 4.95153C19.8982 5.30129 20.1147 5.63489 20.2964 6.10178C20.4338 6.45396 20.5961 6.98384 20.6406 7.9588C20.689 9.01373 20.6987 9.32956 20.6987 12C20.6987 14.6696 20.689 14.9863 20.6406 16.0412C20.5961 17.0162 20.433 17.546 20.2964 17.8982C20.1147 18.3651 19.8982 18.6979 19.5485 19.0477C19.1987 19.3974 18.8651 19.6139 18.3982 19.7956C18.046 19.933 17.5162 20.0953 16.5412 20.1397C15.4871 20.1882 15.1704 20.1979 12.5 20.1979C9.83037 20.1979 9.51373 20.1882 8.45961 20.1397ZM8.37722 2.06058C7.3126 2.10905 6.58562 2.27787 5.94992 2.52504C5.29241 2.78029 4.73506 3.12278 4.17851 3.67851C3.62278 4.23425 3.28029 4.7916 3.02504 5.44992C2.77787 6.08562 2.60905 6.8126 2.56058 7.87722C2.51131 8.94346 2.5 9.28433 2.5 12C2.5 14.7157 2.51131 15.0565 2.56058 16.1228C2.60905 17.1874 2.77787 17.9144 3.02504 18.5501C3.28029 19.2076 3.62197 19.7658 4.17851 20.3215C4.73425 20.8772 5.2916 21.2189 5.94992 21.475C6.58643 21.7221 7.3126 21.891 8.37722 21.9394C9.44427 21.9879 9.78433 22 12.5 22C15.2165 22 15.5565 21.9887 16.6228 21.9394C17.6874 21.891 18.4144 21.7221 19.0501 21.475C19.7076 21.2189 20.2649 20.8772 20.8215 20.3215C21.3772 19.7658 21.7189 19.2076 21.975 18.5501C22.2221 17.9144 22.3918 17.1874 22.4394 16.1228C22.4879 15.0557 22.4992 14.7157 22.4992 12C22.4992 9.28433 22.4879 8.94346 22.4394 7.87722C22.391 6.8126 22.2221 6.08562 21.975 5.44992C21.7189 4.79241 21.3772 4.23506 20.8215 3.67851C20.2658 3.12278 19.7076 2.78029 19.0509 2.52504C18.4144 2.27787 17.6874 2.10824 16.6236 2.06058C15.5574 2.01212 15.2165 2 12.5008 2C9.78433 2 9.44427 2.01131 8.37722 2.06058Z" fill="white"/>
</g>
<defs>
<clipPath id="clip0_6_17">
<rect width="24" height="24" fill="white" transform="translate(0.5)"/>
</clipPath>
</defs>
</svg>
