<svg width="25" height="24" viewBox="0 0 25 24" fill="none" xmlns="http://www.w3.org/2000/svg">
<path d="M19.5002 2.00012H5.5C3.5 2.00012 2.5 3.00012 2.5 5.00012L2.50059 19.0001C2.50059 21.0001 3.50021 22.0001 5.50021 22.0001H19.5002C21.5002 22.0001 22.5002 21.0001 22.5002 19.0001V5.00012C22.5002 3.00012 21.5002 2.00012 19.5002 2.00012ZM9.16687 17.8335H6.66687V8.66679H9.16687V17.8335ZM7.91687 7.61012C7.11187 7.61012 6.45854 6.95179 6.45854 6.14012C6.45854 5.32845 7.11187 4.67012 7.91687 4.67012C8.72187 4.67012 9.37521 5.32845 9.37521 6.14012C9.37521 6.95179 8.72271 7.61012 7.91687 7.61012ZM19.1669 17.8335H16.6669V13.1635C16.6669 10.3568 13.3335 10.5693 13.3335 13.1635V17.8335H10.8335V8.66679H13.3335V10.1376C14.4969 7.98262 19.1669 7.82346 19.1669 12.201V17.8335Z" fill="white"/>
</svg>
