<svg width="153" height="46" viewBox="0 0 153 46" fill="none" xmlns="http://www.w3.org/2000/svg">
<path d="M144.665 1.08589H8.51746C4.65485 1.08589 1.52359 4.21715 1.52359 8.07976V37.9202C1.52359 41.7829 4.65485 44.9141 8.51746 44.9141H144.665C148.527 44.9141 151.659 41.7829 151.659 37.9202V8.07976C151.659 4.21715 148.527 1.08589 144.665 1.08589Z" fill="#050038"/>
<path d="M54.1181 12.0821C54.1181 13.0197 53.8405 13.7662 53.2844 14.3232C52.6529 14.9854 51.8297 15.3167 50.8178 15.3167C49.8488 15.3167 49.0248 14.981 48.3472 14.3088C47.6685 13.6369 47.3298 12.8038 47.3298 11.8097C47.3298 10.8153 47.6685 9.98264 48.3472 9.31032C49.0248 8.63846 49.8488 8.30231 50.8178 8.30231C51.2987 8.30231 51.759 8.3963 52.1961 8.58385C52.6332 8.77185 52.9838 9.02139 53.2461 9.33393L52.6559 9.92444C52.2114 9.39335 51.5995 9.12803 50.8178 9.12803C50.111 9.12803 49.4999 9.37634 48.9841 9.8733C48.4683 10.3708 48.2105 11.016 48.2105 11.8097C48.2105 12.6036 48.4683 13.2487 48.9841 13.7462C49.4999 14.2432 50.111 14.4914 50.8178 14.4914C51.5676 14.4914 52.1927 14.2418 52.693 13.7419C53.0179 13.4161 53.2058 12.9633 53.256 12.3819H50.8178V11.5755H54.0714C54.1028 11.7508 54.1181 11.9191 54.1181 12.0821Z" fill="white"/>
<path d="M54.119 12.0821H54.0071C54.0061 12.9983 53.7386 13.7098 53.2061 14.2441L53.2049 14.245L53.2045 14.2458C52.593 14.8853 51.807 15.2035 50.8186 15.2048C49.8754 15.2035 49.0859 14.8818 48.4267 14.2296C47.769 13.5761 47.4436 12.7784 47.4424 11.8097C47.4436 10.8407 47.769 10.0434 48.4267 9.39033C49.0859 8.73772 49.8754 8.41555 50.8186 8.41421C51.285 8.41421 51.7292 8.50519 52.1528 8.68658C52.5767 8.86932 52.9116 9.10879 53.1612 9.40611L53.2469 9.33393L53.1678 9.25482L52.5776 9.84577L52.6567 9.92444L52.7429 9.85282C52.2777 9.29544 51.6248 9.01445 50.8186 9.01613C50.0856 9.01524 49.4409 9.27709 48.9076 9.79295C48.3691 10.3105 48.0986 10.9919 48.0994 11.8097C48.0986 12.6276 48.3691 13.309 48.9076 13.8266C49.4409 14.3424 50.0856 14.6043 50.8186 14.6034C51.5932 14.6048 52.2533 14.342 52.773 13.821C53.1201 13.473 53.3168 12.9908 53.3684 12.3915L53.3788 12.27H50.9305V11.6874H54.0721V11.5755L53.9619 11.5952C53.9926 11.7648 54.0071 11.926 54.0071 12.0821H54.119H54.2309C54.2309 11.912 54.2151 11.7373 54.1823 11.5554L54.1657 11.4636H50.7067V12.3819V12.4938H53.2568V12.3819L53.1454 12.3723C53.0961 12.9354 52.9168 13.3594 52.6147 13.6627C52.1339 14.1418 51.5438 14.3782 50.8186 14.3795C50.1381 14.3787 49.5606 14.1444 49.0628 13.6658C48.5698 13.1888 48.3244 12.58 48.3232 11.8097C48.3244 11.0396 48.5698 10.4307 49.0628 9.95374C49.5606 9.47515 50.1381 9.24083 50.8186 9.23994C51.5753 9.24173 52.1467 9.49172 52.5711 9.99663L52.6498 10.0902L53.326 9.41305L53.3985 9.34054L53.3325 9.2622C53.0576 8.93444 52.6913 8.67427 52.241 8.48113C51.7899 8.28743 51.3139 8.19041 50.8186 8.19041C49.8238 8.18951 48.9653 8.53921 48.2689 9.23121C47.57 9.92187 47.2178 10.79 47.2186 11.8097C47.2178 12.8291 47.57 13.6977 48.2694 14.3888C48.9653 15.0803 49.8238 15.4296 50.8186 15.4286C51.8546 15.4296 52.714 15.0855 53.3661 14.4005L53.2853 14.3232L53.3644 14.4023C53.944 13.8231 54.2316 13.0406 54.2309 12.0821H54.119Z" fill="white"/>
<path d="M59.2777 9.27757H56.2201V11.4064H58.9775V12.2132H56.2201V14.3421H59.2777V15.1669H55.3581V8.45274H59.2777V9.27757Z" fill="white"/>
<path d="M59.2767 9.27756V9.16566H56.1072V11.5183H58.8645V12.1009L56.1072 12.1013V14.454H59.1648V15.055H55.469V8.56463H59.1648V9.27756H59.2767V9.16566V9.27756H59.3886V8.45273V8.34083H55.2452V15.2788H59.3886V14.3421V14.2302H56.331V12.3251H59.0884V11.4064V11.2945H56.331V9.38946H59.3886V9.27756H59.2767Z" fill="white"/>
<path d="M62.916 15.1669H62.0527V9.27757H60.1774V8.45274H64.7912V9.27757H62.916V15.1669Z" fill="white"/>
<path d="M62.9149 15.1669V15.055H62.1635V9.16566H60.2882V8.56463H64.6782V9.16566H62.803V15.1669H62.9149V15.055V15.1669H63.0268V9.38946H64.902V8.45273V8.34083H60.0644V9.27756V9.38946H61.9397V15.2788H62.9149H63.0268V15.1669H62.9149Z" fill="white"/>
<path d="M68.1292 15.1669V8.45274H68.9916V15.1669H68.1292Z" fill="white"/>
<path d="M68.1281 15.1669H68.24V8.56463H68.8787V15.055H68.1281V15.1669H68.24H68.1281V15.2788H68.9906H69.1025V8.34083H68.1281H68.0162V15.2788H68.1281V15.1669Z" fill="white"/>
<path d="M72.8184 15.1669H71.955V9.27757H70.0798V8.45274H74.6935V9.27757H72.8184V15.1669Z" fill="white"/>
<path d="M72.8173 15.1669V15.055H72.0659V9.16566H70.1907V8.56463H74.5806V9.16566H72.7054V15.1669H72.8173V15.055V15.1669H72.9292V9.38946H74.8044V8.45273V8.34083H69.9669V9.27756V9.38946H71.8421V15.2788H72.8173H72.9292V15.1669H72.8173Z" fill="white"/>
<path d="M79.1405 13.737C79.6374 14.2401 80.2455 14.4914 80.9646 14.4914C81.6836 14.4914 82.2921 14.2401 82.7883 13.737C83.2857 13.234 83.5349 12.5908 83.5349 11.8097C83.5349 11.0286 83.2857 10.3856 82.7883 9.88247C82.2921 9.37936 81.6836 9.12803 80.9646 9.12803C80.2455 9.12803 79.6374 9.37936 79.1405 9.88247C78.6443 10.3856 78.3952 11.0286 78.3952 11.8097C78.3952 12.5908 78.6443 13.234 79.1405 13.737ZM83.4264 14.2992C82.7663 14.9779 81.9454 15.3167 80.9646 15.3167C79.9827 15.3167 79.1623 14.9779 78.5037 14.2992C77.8431 13.6211 77.5145 12.7911 77.5145 11.8097C77.5145 10.8283 77.8431 9.99831 78.5037 9.32039C79.1623 8.64148 79.9827 8.30231 80.9646 8.30231C81.9403 8.30231 82.7589 8.64327 83.422 9.32475C84.0843 10.0062 84.4156 10.8345 84.4156 11.8097C84.4156 12.7911 84.0851 13.6211 83.4264 14.2992Z" fill="white"/>
<path d="M79.1414 13.737L79.0617 13.8158C79.5772 14.339 80.2202 14.6048 80.9655 14.6034C81.7103 14.6048 82.3542 14.339 82.8686 13.8158C83.3875 13.2921 83.6484 12.6145 83.6477 11.8097C83.6484 11.0051 83.3875 10.3275 82.8686 9.80381C82.3542 9.28056 81.7103 9.01479 80.9655 9.01613C80.2202 9.01479 79.5772 9.28056 79.0617 9.80381C78.5442 10.3275 78.2828 11.0051 78.2842 11.8097C78.2828 12.6145 78.5442 13.2921 79.0617 13.8158L79.1414 13.737L79.2209 13.6583C78.7463 13.1753 78.5088 12.5677 78.508 11.8097C78.5088 11.0519 78.7463 10.4442 79.2209 9.96111C79.6999 9.47818 80.2721 9.24128 80.9655 9.23994C81.6582 9.24128 82.2317 9.47818 82.7095 9.96111C83.1851 10.4442 83.4225 11.0519 83.4234 11.8097C83.4225 12.5677 83.1851 13.1753 82.7095 13.6583C82.2317 14.1414 81.6582 14.3782 80.9655 14.3796C80.2721 14.3782 79.6999 14.1414 79.2209 13.6583L79.1414 13.737ZM83.4273 14.2992L83.3473 14.2214C82.7056 14.8788 81.921 15.2035 80.9655 15.2048C80.0094 15.2035 79.2248 14.8788 78.5844 14.2214L78.5814 14.2179L78.5844 14.2214C77.9441 13.5617 77.6281 12.7662 77.6272 11.8097C77.6281 10.8533 77.9441 10.0578 78.5844 9.39817C79.2248 8.74074 80.0094 8.41556 80.9655 8.41421C81.9149 8.41556 82.6977 8.74209 83.3429 9.40298C83.9855 10.0656 84.3033 10.86 84.3046 11.8097C84.3033 12.7662 83.9863 13.5617 83.3473 14.2214L83.4273 14.2992L83.5078 14.3769C84.1861 13.6802 84.5292 12.816 84.5284 11.8097C84.5292 10.8092 84.1848 9.94684 83.5033 9.24698C82.8214 8.54446 81.9673 8.18918 80.9655 8.19041C79.9583 8.18918 79.1016 8.54278 78.4241 9.24261V9.24217C77.7444 9.93931 77.4025 10.8035 77.4034 11.8097C77.4025 12.816 77.7444 13.6802 78.4241 14.3773L78.4271 14.3805L78.4241 14.3769C79.1016 15.0767 79.9583 15.4296 80.9655 15.4286C81.9721 15.4296 82.8288 15.0767 83.5078 14.3769L83.4273 14.2992Z" fill="white"/>
<path d="M85.6266 15.1669V8.45274H86.6767L89.9397 13.6759H89.9768L89.9397 12.3819V8.45274H90.803V15.1669H89.9025L86.4887 9.6906H86.4515L86.4887 10.985V15.1669H85.6266Z" fill="white"/>
<path d="M85.6275 15.1669H85.7394V8.56463H86.6153L89.8783 13.7878H89.9777H90.0925L90.0523 12.3802V8.56463H90.6919V15.055H89.9654L86.5515 9.57869H86.4523H86.3373L86.3775 10.9868V15.055H85.6275V15.1669H85.7394H85.6275V15.2788H86.4894H86.6013V10.9831L86.5642 9.68757L86.4523 9.69059V9.80249H86.4894V9.69059L86.3946 9.75012L89.8412 15.2788H90.8038H90.9157V8.34083H89.9404H89.8285V12.3833L89.8657 13.6789L89.9777 13.6759V13.564H89.9404V13.6759L90.0354 13.6165L86.7394 8.34083H85.6275H85.5156V15.2788H85.6275V15.1669Z" fill="white"/>
<path d="M120.721 34.1901H122.809V20.2011H120.721V34.1901ZM139.528 25.2402L137.134 31.3052H137.063L134.578 25.2402H132.329L136.054 33.7171L133.931 38.4323H136.109L141.85 25.2402H139.528ZM127.687 32.6012C127.001 32.6012 126.048 32.2593 126.048 31.4132C126.048 30.3334 127.236 29.9194 128.261 29.9194C129.181 29.9194 129.611 30.1174 130.17 30.3877C130.008 31.6833 128.892 32.6012 127.687 32.6012ZM127.938 24.9341C126.427 24.9341 124.861 25.6003 124.213 27.076L126.066 27.8497C126.462 27.076 127.2 26.8239 127.974 26.8239C129.054 26.8239 130.151 27.4721 130.17 28.6239V28.7677C129.791 28.5517 128.982 28.2279 127.992 28.2279C125.994 28.2279 123.96 29.3254 123.96 31.3773C123.96 33.249 125.598 34.455 127.433 34.455C128.838 34.455 129.611 33.8251 130.098 33.0873H130.17V34.167H132.185V28.8035C132.185 26.3203 130.332 24.9341 127.938 24.9341ZM115.033 26.9431H112.064V22.1481H115.033C116.594 22.1481 117.481 23.4405 117.481 24.5455C117.481 25.6296 116.594 26.9431 115.033 26.9431ZM114.98 20.2011H109.976V34.1901H112.064V28.8901H114.98C117.294 28.8901 119.569 27.2146 119.569 24.5455C119.569 21.8765 117.294 20.2011 114.98 20.2011ZM87.6972 32.6038C86.2547 32.6038 85.0469 31.396 85.0469 29.7372C85.0469 28.0609 86.2547 26.8348 87.6972 26.8348C89.1213 26.8348 90.239 28.0609 90.239 29.7372C90.239 31.396 89.1213 32.6038 87.6972 32.6038ZM90.0948 26.0235H90.0226C89.5541 25.4648 88.6523 24.96 87.5167 24.96C85.137 24.96 82.9558 27.0511 82.9558 29.7372C82.9558 32.4053 85.137 34.4786 87.5167 34.4786C88.6523 34.4786 89.5541 33.9737 90.0226 33.3972H90.0948V34.0821C90.0948 35.9032 89.1213 36.8767 87.5529 36.8767C86.2731 36.8767 85.4798 35.9569 85.1549 35.1819L83.3343 35.939C83.8572 37.2009 85.2454 38.7515 87.5529 38.7515C90.0047 38.7515 92.078 37.3089 92.078 33.7937V25.2485H90.0948V26.0235ZM93.52 34.1901H95.611V20.2006H93.52V34.1901ZM98.6939 29.5751C98.6398 27.7361 100.119 26.7989 101.182 26.7989C102.012 26.7989 102.714 27.2133 102.948 27.8087L98.6939 29.5751ZM105.184 27.9888C104.788 26.9248 103.579 24.96 101.11 24.96C98.6575 24.96 96.6209 26.889 96.6209 29.7193C96.6209 32.3874 98.6398 34.4786 101.344 34.4786C103.525 34.4786 104.788 33.1445 105.311 32.3694L103.688 31.2876C103.148 32.081 102.408 32.6038 101.344 32.6038C100.28 32.6038 99.5238 32.1169 99.0361 31.1617L105.4 28.5294L105.184 27.9888ZM54.4834 26.4203V28.4394H59.3148C59.1705 29.5751 58.7919 30.4043 58.215 30.9812C57.5121 31.6845 56.4123 32.4595 54.4834 32.4595C51.5087 32.4595 49.1833 30.0619 49.1833 27.0874C49.1833 24.1128 51.5087 21.7148 54.4834 21.7148C56.0879 21.7148 57.2594 22.3459 58.1249 23.1572L59.549 21.7332C58.3413 20.5792 56.7367 19.6958 54.4834 19.6958C50.4089 19.6958 46.9838 23.0131 46.9838 27.0874C46.9838 31.1617 50.4089 34.4786 54.4834 34.4786C56.683 34.4786 58.3413 33.7579 59.6391 32.4053C60.9733 31.0713 61.3881 29.1965 61.3881 27.6823C61.3881 27.2133 61.3521 26.781 61.2796 26.4203H54.4834ZM66.8808 32.6038C65.4383 32.6038 64.1944 31.4139 64.1944 29.7193C64.1944 28.0067 65.4383 26.8348 66.8808 26.8348C68.3229 26.8348 69.5669 28.0067 69.5669 29.7193C69.5669 31.4139 68.3229 32.6038 66.8808 32.6038ZM66.8808 24.96C64.2485 24.96 62.1031 26.961 62.1031 29.7193C62.1031 32.4595 64.2485 34.4786 66.8808 34.4786C69.5127 34.4786 71.6581 32.4595 71.6581 29.7193C71.6581 26.961 69.5127 24.96 66.8808 24.96ZM77.3025 32.6038C75.8606 32.6038 74.6164 31.4139 74.6164 29.7193C74.6164 28.0067 75.8606 26.8348 77.3025 26.8348C78.7446 26.8348 79.9887 28.0067 79.9887 29.7193C79.9887 31.4139 78.7446 32.6038 77.3025 32.6038ZM77.3025 24.96C74.6702 24.96 72.5254 26.961 72.5254 29.7193C72.5254 32.4595 74.6702 34.4786 77.3025 34.4786C79.9345 34.4786 82.0798 32.4595 82.0798 29.7193C82.0798 26.961 79.9345 24.96 77.3025 24.96Z" fill="white"/>
<path d="M12.8176 36.8641L12.7344 36.7845C12.4088 36.44 12.2166 35.905 12.2166 35.2122V35.3752V10.627C12.2166 10.6248 12.2166 10.6231 12.2166 10.6213C12.2166 10.6235 12.2166 10.6252 12.2166 10.6275V10.7909C12.2166 10.0408 12.4407 9.47568 12.8162 9.13684L26.6806 23.0009L12.8176 36.8641ZM12.2166 10.62C12.2166 10.5584 12.2183 10.4985 12.2213 10.4395C12.2183 10.498 12.2166 10.5584 12.2166 10.62ZM12.2213 10.4368C12.2213 10.436 12.2213 10.4351 12.2217 10.4343C12.2213 10.4351 12.2213 10.436 12.2213 10.4368ZM12.2217 10.4289C12.2217 10.4286 12.2217 10.4281 12.2217 10.4276C12.2217 10.4281 12.2217 10.4286 12.2217 10.4289Z" fill="url(#paint0_linear_6_65)"/>
<path d="M31.3022 27.7878L31.4077 27.728L36.8829 24.617C37.4049 24.3202 37.7528 23.9604 37.9264 23.5797C37.7532 23.9604 37.4052 24.3206 36.8829 24.6174L31.4077 27.7284L31.3022 27.7878ZM31.3036 27.6239L26.6815 23.0009L31.3031 18.3788L36.8829 21.5488C37.5915 21.9515 37.9893 22.4703 38.0558 23.0006C38.0558 23.0009 38.0558 23.0019 38.0558 23.0026C37.9893 23.5316 37.5915 24.0509 36.8829 24.4534L31.3036 27.6239Z" fill="url(#paint1_linear_6_65)"/>
<path d="M13.8055 37.392C13.4182 37.392 13.0803 37.2661 12.8167 37.0283L12.8172 37.0278C13.0807 37.2656 13.4191 37.392 13.8064 37.392C13.84 37.392 13.8741 37.391 13.9086 37.3894C13.8737 37.391 13.8391 37.392 13.8055 37.392ZM13.806 37.228C13.4187 37.2285 13.0807 37.1021 12.8172 36.8644V36.864L26.6803 23.0008L31.3024 27.6237L15.0595 36.8526C14.6102 37.1074 14.1844 37.228 13.806 37.228ZM12.8133 37.0252C12.7888 37.003 12.7647 36.9793 12.7411 36.9549L12.8133 37.0252Z" fill="url(#paint2_linear_6_65)"/>
<path d="M26.6802 23.0009L12.8157 9.13684C13.0793 8.89949 13.4168 8.7736 13.8036 8.7736C14.1831 8.7736 14.6092 8.89468 15.0596 9.14993L31.3018 18.3788L26.6802 23.0009ZM31.4064 18.2744L15.0596 8.98655C14.6092 8.73119 14.1831 8.61012 13.8036 8.61012C13.8019 8.61012 13.8007 8.61012 13.7988 8.61012C13.801 8.61012 13.8027 8.61012 13.8054 8.61012C14.184 8.61012 14.6097 8.73075 15.0596 8.98611L31.4064 18.2744Z" fill="url(#paint3_linear_6_65)"/>
<path d="M13.9085 37.3895C14.2603 37.3693 14.6498 37.2482 15.0594 37.0162L31.3008 27.7877L15.0594 37.0162C14.6501 37.2486 14.2603 37.3693 13.9085 37.3895ZM12.8165 37.0283L12.813 37.0253C12.8142 37.0262 12.8156 37.0275 12.8165 37.0283ZM12.7409 36.9549L12.7338 36.948V36.9475C12.7365 36.9502 12.7386 36.9527 12.7409 36.9549Z" fill="black"/>
<path d="M31.3021 27.7878L31.4076 27.728L31.3021 27.7878Z" fill="url(#paint4_linear_6_65)"/>
<path d="M13.8062 37.392C13.4189 37.392 13.0805 37.2656 12.8169 37.0278L12.8165 37.0283C12.8156 37.0274 12.8142 37.0261 12.813 37.0252L12.7409 36.9549C12.7386 36.9527 12.7365 36.9501 12.7338 36.9474L12.8169 36.8644C13.0805 37.1021 13.4184 37.2285 13.8057 37.228C14.1842 37.228 14.61 37.1074 15.0594 36.8526L31.3021 27.6237L31.4062 27.7278L31.3008 27.7876L15.0594 37.0161C14.6498 37.2482 14.2603 37.3692 13.9085 37.3894C13.8739 37.391 13.8397 37.392 13.8062 37.392Z" fill="url(#paint5_linear_6_65)"/>
<path d="M12.7344 36.9479C12.4088 36.6033 12.2166 36.0684 12.2166 35.3756V35.3751C12.2166 36.0684 12.4088 36.6029 12.7344 36.9474V36.9479Z" fill="black"/>
<path d="M12.7344 36.9475C12.4088 36.603 12.2166 36.0685 12.2166 35.3752V35.2121C12.2166 35.905 12.4088 36.44 12.7344 36.7845L12.8176 36.8641L12.7344 36.9475Z" fill="url(#paint6_linear_6_65)"/>
<path d="M12.7338 36.9475L12.8169 36.8641V36.8644L12.7338 36.9475Z" fill="url(#paint7_linear_6_65)"/>
<path d="M37.9263 23.5796C38.0123 23.3906 38.0557 23.1966 38.0557 23.0024C38.0557 23.0021 38.0557 23.0017 38.0557 23.0017C38.0557 23.1961 38.0123 23.3902 37.9263 23.5796Z" fill="black"/>
<path d="M31.4062 27.7277L31.3021 27.6236L36.8814 24.4532C37.59 24.0507 37.9879 23.5313 38.0542 23.0024C38.0542 23.1966 38.011 23.3906 37.9249 23.5795C37.7514 23.9602 37.4034 24.32 36.8814 24.6167L31.4062 27.7277Z" fill="url(#paint8_linear_6_65)"/>
<path d="M38.0545 23.0009V23.0005C38.0541 22.4151 37.6629 21.8299 36.8816 21.3857L31.4064 18.2748H31.406L31.4064 18.2744L36.8816 21.3853C37.6637 21.8294 38.0554 22.4156 38.0545 23.0009Z" fill="#404040"/>
<path d="M38.0547 23.0005C37.9882 22.4702 37.5905 21.9514 36.8819 21.5487L31.3021 18.3788L31.4062 18.2748H31.4066L36.8819 21.3857C37.6631 21.8299 38.0542 22.4151 38.0547 23.0005Z" fill="url(#paint9_linear_6_65)"/>
<path d="M12.2166 10.6214C12.2166 10.621 12.2166 10.6205 12.2166 10.62C12.2166 10.6205 12.2166 10.621 12.2166 10.6214ZM12.2213 10.4396C12.2213 10.4386 12.2213 10.4378 12.2213 10.4369C12.2213 10.4378 12.2213 10.4386 12.2213 10.4396ZM12.2217 10.4343C12.2217 10.4325 12.2217 10.4308 12.2217 10.429C12.2217 10.4308 12.2217 10.4325 12.2217 10.4343ZM12.2217 10.4277C12.2865 9.27814 12.9116 8.61412 13.7958 8.6102C13.4124 8.61244 13.0785 8.73833 12.8171 8.97388V8.97343L12.814 8.97657C12.7864 9.00141 12.7602 9.02771 12.7344 9.05479C12.4407 9.36554 12.2554 9.83105 12.2217 10.4277Z" fill="#404040"/>
<path d="M12.2166 10.7908V10.6273C12.2166 10.6251 12.2166 10.6233 12.2166 10.6211C12.2166 10.6207 12.2166 10.6202 12.2166 10.6198C12.2166 10.5581 12.2183 10.4979 12.2213 10.4393C12.2213 10.4384 12.2213 10.4375 12.2213 10.4366C12.2213 10.4358 12.2213 10.4349 12.2217 10.4341C12.2217 10.4322 12.2217 10.4305 12.2217 10.4288C12.2217 10.4283 12.2217 10.4279 12.2217 10.4275C12.2554 9.83078 12.4407 9.36527 12.7344 9.05452L12.8162 9.13666C12.4407 9.4755 12.2166 10.0406 12.2166 10.7908ZM12.814 8.9763L12.8171 8.97317C12.8162 8.97451 12.8149 8.97541 12.814 8.9763Z" fill="url(#paint10_linear_6_65)"/>
<path d="M31.3016 18.3788L15.0594 9.14997C14.6091 8.89473 14.1829 8.77365 13.8035 8.77365C13.4166 8.77365 13.0792 8.89954 12.8156 9.13688L12.7338 9.05475C12.7597 9.02767 12.7858 9.00137 12.8134 8.97653C12.8142 8.97563 12.8156 8.97474 12.8165 8.97384C13.0779 8.73829 13.4118 8.6124 13.7952 8.61016C13.7961 8.61016 13.7973 8.61016 13.7987 8.61016C13.8005 8.61016 13.8017 8.61016 13.8035 8.61016C14.1829 8.61016 14.6091 8.73124 15.0594 8.9866L31.4062 18.2745L31.4057 18.2748L31.3016 18.3788Z" fill="url(#paint11_linear_6_65)"/>
<path d="M144.665 1.08589H8.51746C4.65485 1.08589 1.52359 4.21715 1.52359 8.07976V37.9202C1.52359 41.7829 4.65485 44.9141 8.51746 44.9141H144.665C148.527 44.9141 151.659 41.7829 151.659 37.9202V8.07976C151.659 4.21715 148.527 1.08589 144.665 1.08589Z" stroke="#A6A6A6" stroke-width="0.932515"/>
<defs>
<linearGradient id="paint0_linear_6_65" x1="25.4513" y1="10.366" x2="6.67135" y2="29.1459" gradientUnits="userSpaceOnUse">
<stop stop-color="#00A0FF"/>
<stop offset="0.00657445" stop-color="#00A1FF"/>
<stop offset="0.2601" stop-color="#00BEFF"/>
<stop offset="0.5122" stop-color="#00D2FF"/>
<stop offset="0.7604" stop-color="#00DFFF"/>
<stop offset="1" stop-color="#00E3FF"/>
</linearGradient>
<linearGradient id="paint1_linear_6_65" x1="38.9191" y1="23.0017" x2="11.8422" y2="23.0017" gradientUnits="userSpaceOnUse">
<stop stop-color="#FFE000"/>
<stop offset="0.4087" stop-color="#FFBD00"/>
<stop offset="0.7754" stop-color="#FFA500"/>
<stop offset="1" stop-color="#FF9C00"/>
</linearGradient>
<linearGradient id="paint2_linear_6_65" x1="28.8384" y1="25.5693" x2="3.37143" y2="51.0363" gradientUnits="userSpaceOnUse">
<stop stop-color="#FF3A44"/>
<stop offset="1" stop-color="#C31162"/>
</linearGradient>
<linearGradient id="paint3_linear_6_65" x1="9.22226" y1="0.816822" x2="20.5943" y2="12.1889" gradientUnits="userSpaceOnUse">
<stop stop-color="#32A071"/>
<stop offset="0.0685" stop-color="#2DA771"/>
<stop offset="0.4762" stop-color="#15CF74"/>
<stop offset="0.8009" stop-color="#06E775"/>
<stop offset="1" stop-color="#00F076"/>
</linearGradient>
<linearGradient id="paint4_linear_6_65" x1="38.9188" y1="23.0016" x2="11.8427" y2="23.0016" gradientUnits="userSpaceOnUse">
<stop stop-color="#CCB300"/>
<stop offset="0.4087" stop-color="#CC9700"/>
<stop offset="0.7754" stop-color="#CC8400"/>
<stop offset="1" stop-color="#CC7D00"/>
</linearGradient>
<linearGradient id="paint5_linear_6_65" x1="28.8381" y1="25.5693" x2="3.3712" y2="51.0363" gradientUnits="userSpaceOnUse">
<stop stop-color="#CC2E36"/>
<stop offset="1" stop-color="#9C0E4E"/>
</linearGradient>
<linearGradient id="paint6_linear_6_65" x1="25.4513" y1="10.3659" x2="6.67134" y2="29.1458" gradientUnits="userSpaceOnUse">
<stop stop-color="#008DE0"/>
<stop offset="0.00657445" stop-color="#008DE0"/>
<stop offset="0.2601" stop-color="#00A7E0"/>
<stop offset="0.5122" stop-color="#00B8E0"/>
<stop offset="0.7604" stop-color="#00C4E0"/>
<stop offset="1" stop-color="#00C7E0"/>
</linearGradient>
<linearGradient id="paint7_linear_6_65" x1="28.8384" y1="25.5693" x2="3.37126" y2="51.0367" gradientUnits="userSpaceOnUse">
<stop stop-color="#E0333C"/>
<stop offset="1" stop-color="#AB0F56"/>
</linearGradient>
<linearGradient id="paint8_linear_6_65" x1="38.9176" y1="23.0014" x2="11.8408" y2="23.0014" gradientUnits="userSpaceOnUse">
<stop stop-color="#E0C500"/>
<stop offset="0.4087" stop-color="#E0A600"/>
<stop offset="0.7754" stop-color="#E09100"/>
<stop offset="1" stop-color="#E08900"/>
</linearGradient>
<linearGradient id="paint9_linear_6_65" x1="38.918" y1="23.0016" x2="11.8412" y2="23.0016" gradientUnits="userSpaceOnUse">
<stop stop-color="#FFE840"/>
<stop offset="0.4087" stop-color="#FFCE40"/>
<stop offset="0.7754" stop-color="#FFBC40"/>
<stop offset="1" stop-color="#FFB540"/>
</linearGradient>
<linearGradient id="paint10_linear_6_65" x1="25.4512" y1="10.3658" x2="6.67135" y2="29.1456" gradientUnits="userSpaceOnUse">
<stop stop-color="#40B8FF"/>
<stop offset="0.00657445" stop-color="#40B9FF"/>
<stop offset="0.2601" stop-color="#40CEFF"/>
<stop offset="0.5122" stop-color="#40DDFF"/>
<stop offset="0.7604" stop-color="#40E7FF"/>
<stop offset="1" stop-color="#40EAFF"/>
</linearGradient>
<linearGradient id="paint11_linear_6_65" x1="9.2221" y1="0.816873" x2="20.5941" y2="12.1889" gradientUnits="userSpaceOnUse">
<stop stop-color="#65B895"/>
<stop offset="0.0685" stop-color="#62BD95"/>
<stop offset="0.4762" stop-color="#50DB97"/>
<stop offset="0.8009" stop-color="#44ED98"/>
<stop offset="1" stop-color="#40F498"/>
</linearGradient>
</defs>
</svg>
