<svg width="25" height="24" viewBox="0 0 25 24" fill="none" xmlns="http://www.w3.org/2000/svg">
<g clip-path="url(#clip0_6_8)">
<path d="M22.5 5.89418C21.7642 6.21575 20.9733 6.43232 20.1433 6.52994C20.9908 6.03035 21.6417 5.23872 21.9475 4.29532C21.155 4.758 20.2767 5.09434 19.3417 5.27564C18.5942 4.49057 17.5267 4 16.3467 4C13.6975 4 11.7508 6.43314 12.3492 8.95898C8.94 8.79081 5.91667 7.18294 3.8925 4.73913C2.8175 6.55455 3.335 8.92945 5.16167 10.1321C4.49 10.1107 3.85667 9.92945 3.30417 9.62674C3.25917 11.4979 4.62167 13.2486 6.595 13.6382C6.0175 13.7925 5.385 13.8285 4.74167 13.7071C5.26333 15.3117 6.77833 16.4791 8.575 16.5119C6.85 17.8433 4.67667 18.4381 2.5 18.1854C4.31583 19.3314 6.47333 20 8.79 20C16.4083 20 20.7125 13.6661 20.4525 7.98523C21.2542 7.41509 21.95 6.70386 22.5 5.89418Z" fill="white"/>
</g>
<defs>
<clipPath id="clip0_6_8">
<rect width="24" height="24" fill="white" transform="translate(0.5)"/>
</clipPath>
</defs>
</svg>
