<svg width="25" height="24" viewBox="0 0 25 24" fill="none" xmlns="http://www.w3.org/2000/svg">
<g clip-path="url(#clip0_6_20)">
<path d="M23.4991 9.70998C23.5485 8.27864 23.2355 6.858 22.5891 5.57998C22.1505 5.05558 21.5418 4.70169 20.8691 4.57998C18.0866 4.32751 15.2926 4.22403 12.4991 4.26998C9.7157 4.22194 6.93176 4.32208 4.15905 4.56998C3.61087 4.6697 3.10357 4.92683 2.69905 5.30998C1.79905 6.13998 1.69905 7.55998 1.59905 8.75998C1.45396 10.9175 1.45396 13.0824 1.59905 15.24C1.62798 15.9154 1.72854 16.5858 1.89905 17.24C2.01963 17.745 2.26357 18.2123 2.60905 18.6C3.01632 19.0034 3.53543 19.2752 4.09905 19.38C6.25497 19.6461 8.42727 19.7564 10.5991 19.71C14.0991 19.76 17.169 19.71 20.799 19.43C21.3765 19.3316 21.9102 19.0595 22.3291 18.65C22.609 18.3699 22.8181 18.0271 22.9391 17.65C23.2967 16.5526 23.4723 15.4041 23.459 14.25C23.4991 13.69 23.4991 10.31 23.4991 9.70998ZM10.239 14.85V8.65998L16.159 11.77C14.4991 12.69 12.309 13.73 10.239 14.85Z" fill="white"/>
</g>
<defs>
<clipPath id="clip0_6_20">
<rect width="24" height="24" fill="white" transform="translate(0.5)"/>
</clipPath>
</defs>
</svg>
